<?xml version="1.0" encoding="utf-8"?>
<!-- Generator: Adobe Illustrator 27.5.0, SVG Export Plug-In . SVG Version: 6.00 Build 0)  -->
<svg version="1.1" xmlns="http://www.w3.org/2000/svg" xmlns:xlink="http://www.w3.org/1999/xlink" x="0px" y="0px"
	 viewBox="0 0 500 500" style="enable-background:new 0 0 500 500;" xml:space="preserve">
<g id="BACKGROUND">
	<rect style="fill:#F3E5DF;" width="500" height="500"/>
</g>
<g id="OBJECTS">
	<g>
		<path style="fill:#E6C7B1;" d="M279.74,199.4c0.86,1.66,1.04,3.59,0.33,5.32c-2.99,7.28-6.65,17.59-6.82,25.13
			c-18.2,7.5-29.06,6.62-47.05-0.02h-0.01c-0.17-7.53-3.82-17.84-6.81-25.11c-0.71-1.73-0.53-3.66,0.33-5.32
			c4.01-7.76,0.97-16.01,0.97-16.01l9.39-3.58c-5.31,28.92,16.41,7.42,19.66,29.48c3.24-22.06,24.96-0.56,19.66-29.48l9.38,3.58
			C278.77,183.39,275.73,191.64,279.74,199.4z"/>
		<path style="fill:#E6C7B1;" d="M334.74,321.39c0.63,6.45-4.43,12.05-10.92,12.05h-34.08h-40.99h-54.43H176.2
			c-6.53,0-11.62-5.66-10.93-12.15l0.13-1.19c19.45-59.21,44.47-76.15,56.53-80.98c0.74-0.3,1.36-0.71,1.89-1.22h0.01
			c5.27,2.53,9.97,4.35,14.38,5.49c3.65,0.95,7.1,1.44,10.52,1.48c3.78,0.06,7.51-0.43,11.43-1.43c4.55-1.17,9.34-3.03,14.72-5.54
			l0.39-0.37c0.58,0.69,1.33,1.22,2.24,1.59c12.15,4.87,37.42,22,56.94,82.17L334.74,321.39z"/>
	</g>
	<g>
		<g id="XMLID_00000037691187941278600680000001588345041082806947_">
			<path style="fill:none;stroke:#564B49;stroke-width:2.5;stroke-linecap:round;stroke-linejoin:round;stroke-miterlimit:10;" d="
				M226.2,229.83c17.99,6.64,28.85,7.52,47.05,0.02c0.01-0.01,0.03-0.01,0.04-0.02"/>
			<path style="fill:none;stroke:#564B49;stroke-width:2.5;stroke-linecap:round;stroke-linejoin:round;stroke-miterlimit:10;" d="
				M223.83,237.9c1.79-1.73,2.45-4.6,2.36-8.07c-0.17-7.53-3.82-17.84-6.81-25.11c-0.71-1.73-0.53-3.66,0.33-5.32
				c4.01-7.76,0.97-16.01,0.97-16.01l9.39-3.58c-5.31,28.92,16.41,7.42,19.66,29.48c3.24-22.06,24.96-0.56,19.66-29.48l9.38,3.58
				c0,0-3.04,8.25,0.97,16.01c0.86,1.66,1.04,3.59,0.33,5.32c-2.99,7.28-6.65,17.59-6.82,25.13c-0.07,3.14,0.46,5.79,1.9,7.55
				c0.04,0.04,0.07,0.09,0.12,0.13c0.58,0.69,1.33,1.22,2.24,1.59c12.15,4.87,37.42,22,56.94,82.17l0.29,0.1
				c0.63,6.45-4.43,12.05-10.92,12.05h-34.08h-40.99h-54.43H176.2c-6.53,0-11.62-5.66-10.93-12.15l0.13-1.19
				c19.45-59.21,44.47-76.15,56.53-80.98c0.74-0.3,1.36-0.71,1.89-1.22"/>
			<path style="fill:none;stroke:#564B49;stroke-width:2.5;stroke-linecap:round;stroke-linejoin:round;stroke-miterlimit:10;" d="
				M223.82,237.9h0.01c5.27,2.53,9.97,4.35,14.38,5.49c3.65,0.95,7.1,1.44,10.52,1.48c3.78,0.06,7.51-0.43,11.43-1.43
				c4.55-1.17,9.34-3.03,14.72-5.54"/>
			<path style="fill:none;stroke:#564B49;stroke-width:2.5;stroke-linecap:round;stroke-linejoin:round;stroke-miterlimit:10;" d="
				M236.82,243.008c-23.01,24.49-37.14,56.502-42.5,89.672"/>
			<path style="fill:none;stroke:#564B49;stroke-width:2.5;stroke-linecap:round;stroke-linejoin:round;stroke-miterlimit:10;" d="
				M262.834,242.676c9.053,8.359,26.556,52.035,30.767,90.034"/>
			<path style="fill:none;stroke:#564B49;stroke-width:2.5;stroke-linecap:round;stroke-linejoin:round;stroke-miterlimit:10;" d="
				M248.71,245.68c1.46,28.98,1.48,58.04,0.04,87.03"/>
		</g>
	</g>
	<g>
		<path style="fill:none;stroke:#564B49;stroke-width:2.5;stroke-linecap:round;stroke-linejoin:round;stroke-miterlimit:10;" d="
			M323.82,333.436H176.19c-6.524,0-11.616-5.662-10.92-12.148l0.127-1.191l16.113-150.087c0.823-7.778,7.398-13.681,15.214-13.681
			h106.548c7.829,0,14.39,5.903,15.227,13.681l16.227,151.278c0,0.038,0.013,0.063,0.013,0.101
			C335.373,327.837,330.306,333.436,323.82,333.436z"/>
		<path style="fill:none;stroke:#564B49;stroke-width:2.5;stroke-linecap:round;stroke-linejoin:round;stroke-miterlimit:10;" d="
			M218.418,156.333v-19.186c0-17.443,14.14-31.583,31.583-31.583h0c17.443,0,31.583,14.14,31.583,31.583v19.186"/>
	</g>
</g>
<g id="TEXTS">
	<text transform="matrix(1 0 0 1 153.1066 392.5049)"><tspan x="0" y="0" style="fill:#564B49; font-family:'Montserrat-Bold'; font-size:21px;">clothing</tspan><tspan x="115.793" y="0" style="fill:#564B49; font-family:'Montserrat-Medium'; font-size:21px;"> store</tspan></text>
	
		<text transform="matrix(1 0 0 1 197.3629 413.9316)" style="fill:#564B49; font-family:'Montserrat-Regular'; font-size:12px; letter-spacing:1;">tagline here</text>
</g>
</svg>
